<?xml version="1.0" encoding="utf-8"?>
<!-- Generator: Adobe Illustrator 19.1.0, SVG Export Plug-In . SVG Version: 6.00 Build 0)  -->
<svg version="1.1" id="Calque_1" xmlns="http://www.w3.org/2000/svg" xmlns:xlink="http://www.w3.org/1999/xlink" x="0px" y="0px"
	 viewBox="0 0 936.3 172.1" style="enable-background:new 0 0 936.3 172.1;" xml:space="preserve">
<style type="text/css">
	.st0{fill:#1D1D1B;}
	.st1{fill:#FFFFFF;}
	.st2{fill:#06202A;}
	.st3{fill:#435254;}
	.st4{fill:#F9F3E7;}
	.st5{fill:#D0BFA1;}
</style>
<g id="Yellow_light">
	<path class="st4" d="M9.2,154.4c-2.3-2.5-1.7-6,1.6-10.4c2.9-3.9,4.6-6.2,5-7c1.5-2.7,4.7-6.9,9.8-12.8c2.8-3.3,4.9-6.4,6.2-9.2
		c0.5-1.2-0.1-1.8-1.8-1.8l-7.2,0.4c-1.1-0.1-1.9-0.5-2.6-1c-4.7-4.3-6.8-10.3-6.4-18c0-0.8,0.1-1.7,0.2-2.6
		c0.8-7.7,4.2-15.4,10.2-23c-0.7,0.8,1.5-1.9,6.6-8.2c7.6-9.5,17-18.1,28.2-25.8c2.1-1.3,5.7-3.7,10.8-7.2l15.4-11.4
		c5.1-3.2,10.3-4.6,15.8-4.2c6.5,0.5,9.9,2.9,10.2,7.2c0.4,7.6,0.1,19.7-1,36.4l-0.8,14c-0.4,14.7-0.6,25.9-0.6,33.6
		c0,1.3-0.5,7.4-1.6,18.2c-0.8,7.5-0.1,14,2.2,19.6c1.6,4.1,3.8,6.5,6.6,7.2c1.5,0.4,3.7-0.7,6.6-3.2c2.1-1.9,3.7-2.2,4.8-1
		c2.3,2.5,0.9,5.8-4,9.8l-2,1.6c-3.1,2.3-6.9,3.3-11.4,3.2l-3-0.2c-6.4-0.5-10.8-1.9-13.2-4c-0.7-0.7-1.3-1.3-1.8-2
		c-3.2-4.1-4.5-9.9-4-17.2c0.3-5.3,0.4-8.8,0.4-10.4c0-2.8,0.5-9.4,1.6-19.8c0.1-0.7,0.2-1.3,0.2-2c0.1-2-1.1-3.3-3.8-3.8l-8.2-1.2
		c-7.6-2-12.9-2.9-16-2.8c-1.1,0-2.1,0.1-3.2,0.2c-4.5,0.5-8.2,3.5-11,9l-5.8,11.2l-8.4,13c-0.7,1.1-1.3,2.2-1.8,3.4l-3,5.6
		c-0.1,0.4,0.1,0.7,0.8,0.8l11.8-1.8c0.9,0,1.9,0.1,3,0.2c7.2,0.8,11.7,1.6,13.6,2.4c2,0.9,3.9,2.3,5.6,4.2c0.9,1.1,3.5,1.6,7.6,1.6
		c2.7,0,4.1,0.9,4.4,2.6c0.4,2.9-1.7,5.1-6.4,6.4c1.2-0.4-0.7,0.1-5.6,1.4c-3.6,0.9-8.5,0.7-14.8-0.6l-2.6-0.6
		c-1.2-0.3-4.3-1.5-9.4-3.8c-2.4-0.9-4.7-1.5-6.8-1.6c-2.4-0.1-6.1,1.4-11,4.6C14.9,156.2,11.6,156.5,9.2,154.4z M34.2,109.4
		C44,95.9,51.4,85.3,56.4,77.6c4.7-7.3,8.1-13.3,10.4-18l12.2-22c1.3-2.9,2.5-6.2,3.4-9.8c0.7-2.5-0.1-3.1-2.4-1.6
		c-1.1,0.5-5.4,4.1-13,10.8l-2.6,2.2C58.2,44,51.6,50.4,44.6,58.4l-9,9.8c-1.7,2.3-3.1,4.8-4.2,7.6c-2,5.1-2.8,10.3-2.4,15.6
		c0.1,1.5,0.3,3.3,0.6,5.4c1.1,7.9,1.9,12.3,2.6,13.2C32.8,110.5,33.5,110.3,34.2,109.4z M90.8,85.4L92.2,68v-0.2L92.4,44
		c-0.1-4.8-0.5-7.2-1-7.2c-2.7,0-4.8,2.4-6.4,7.2c-0.8,2.5-1.3,3.9-1.4,4.2c-0.5,1.5-2.6,5.2-6.2,11.2c-0.3,0.7-0.6,1.3-1,2
		L63.8,83.6l5.8,2c3.9-0.1,6.5-0.2,8-0.2c1.1,0,4,0.7,8.8,2C89,88,90.5,87.4,90.8,85.4z"/>
	<path class="st4" d="M196.4,156.2c-2.1-0.3-4.9-1.7-8.2-4.4c-0.7-0.7-1.3-1.2-2-1.6l-6.6-3.6c-0.9-0.8-1.5-1.8-1.8-3
		c-0.3-1.1,0.4-2.5,2-4.2c0.4-0.4,0.7-0.8,1-1.2l2.8-3.6c0.1-0.3,0.2-0.5,0.2-0.6c1.5-4.1,2.1-10.1,2-17.8c0-2.1,0-4,0-5.6
		c0.3-10.1,0.2-16.8-0.2-20c-0.1-1.6-0.3-3.3-0.6-5.2c-0.3-1.3-2.3-1.5-6-0.6c-0.8,0.1-3,1.5-6.6,4.2c1.1-2.8,2.5-4.9,4.2-6.4
		c0.5-0.4,1-0.9,1.4-1.4c3.1-3.5,4.9-5.4,5.4-5.8c0.7-0.5,1.4-1,2.2-1.4c2.4-1.2,4.8-1.6,7.2-1.2c4.4,1.1,6.6,2.7,6.6,4.8
		c-0.1,1.7-0.2,12.9-0.2,33.6v24.6c0,3.3,2.7,5.5,8,6.6c2.7,0.5,4.9,0.6,6.6,0.2c1.7-0.5,2.9-1.6,3.6-3.2c1.2-2.7,1.7-7.5,1.6-14.4
		c-0.1-1.9-0.1-3.5,0-4.8c0.5-9.9,0.7-18.1,0.4-24.6l0.2-8c-0.1-1.1-0.5-2.2-1.2-3.4c-0.5-1.1-2.7-0.7-6.4,1.2
		c-1.5,0.9-2.3,0.9-2.4,0c0.7-2.8,1.9-5,3.8-6.6c0.7-0.5,1.2-1,1.6-1.4c3.3-3.3,5.2-5.1,5.6-5.4c1.3-0.9,2.9-1.5,4.6-1.6
		c1.7-0.1,3.1,0.1,4.2,0.6c1.2,0.5,1.8,1.3,1.8,2.4l0.4,18.6c0.1,6.3,0.2,16.9,0.2,31.8l-0.6,15.2c0.1,1.3,0.3,2.7,0.6,4l2.4,4.8
		c0.1,0.4,0.1,0.8,0,1.2c-0.4,1.9-2,3.5-4.8,4.8c-2.4,1.2-4.9,1.7-7.4,1.4l-2.2-0.2c-0.8-0.1-2.5-1-5-2.6c-1.2-0.7-2.3-1-3.4-1
		c-1.1,0-2.8,0.7-5.2,2.2c-0.7,0.4-1.3,0.7-2,0.8l-5.8,1.8C197.7,156.3,197,156.3,196.4,156.2z"/>
	<path class="st4" d="M328.4,131l-6.8,11.4l-2.6,2.4c-6.1,4.9-14.5,8.1-25,9.6c-2.4,0.4-3.8-1.7-4.2-6.2c0-0.8,0-1.7,0-2.8v-27V88.8
		c0-0.5,0-1.1,0-1.6c0.1-1.5-1.3-1.9-4.2-1.4c-4,0.7-6.4,0.3-7.2-1c-0.7-2.5,0.8-4.6,4.4-6.2c4.5-2.1,7.5-3.9,8.8-5.2
		c0.7-0.8,1.3-2.3,2-4.4c0.7-1.7,2-4,4-6.8c1.9-2.7,4.1-4.1,6.8-4.2c1.2,0,2.1,0.5,2.6,1.6c0.4,1.1,0.4,3.5,0,7.2l0.2,3.6l1.2,2
		c0.5,0.5,1.9,0.9,4,1c0.7,0,1.3,0.1,1.8,0.2l5.8,1.8l1.2,1.2l0.2,1c0.1,1.6-1.1,3-3.6,4.2c-1.7,0.8-2.9,1.5-3.6,2l-5.4,3.6
		c-2.8,1.9-4.1,6.6-3.8,14.2l0.2,10.2c-0.4,7.9-0.4,14.1,0,18.6c0.3,3.1,0.7,5.5,1.2,7.2c0.7,2,2.8,1.9,6.4-0.2
		c2.8-1.6,4.7-2.5,5.6-2.8l10.2-4.6l0.2,0.4L328.4,131z"/>
	<path class="st4" d="M378.4,156.2l0.2-19.2l0.2-23.4l0.6-23.4c0-2-3.6-1.9-10.8,0.2c-1.3,0.4-2.1,0.5-2.2,0.4
		c-0.1,0,0.1-0.2,0.6-0.6c3.6-2.5,7.2-4.8,10.8-6.8l9-5.6c1.7-0.7,3.5-0.9,5.4-0.8c0.9,0.1,2.1,1,3.6,2.6c0.8,0.9,1.7,1.5,2.6,1.6
		c2,0.1,4.6-0.9,7.8-3c1.3-0.8,2.5-1.4,3.6-1.8l11.2-5c1.6-0.4,3.3-0.7,5-0.8c3.5-0.1,5.7,0.5,6.6,1.8c0.9,1.3,0.9,3.6-0.2,6.8
		c-0.3,1.1-0.5,1.9-0.6,2.6l-1,8.8c-0.4,1.1-0.9,2.1-1.6,3.2c-2,3.2-4.1,4.8-6.2,4.8c-2-0.1-3.8-1.7-5.4-4.8
		c-0.4-0.9-0.5-2.9-0.4-5.8c0-0.9-0.1-1.8-0.2-2.6l-0.2,0.2l-0.2,1.6c-0.3,0-0.7-2.2-1.4-6.6c-0.1-1.3-1.8-0.9-5,1.2l-1.6,1.2
		l-6.4,3.6c-1.2,1.1-1.9,2.4-2,4c-0.1,2.3-0.9,8.2-2.4,17.8l-0.4,4.6c-0.8,10.3-1.1,20.3-1,30c0,1.1,0,2.3,0,3.6
		c0,1.9,1.9,1.9,5.8,0c2-0.9,3.3-1.5,4-1.8c1.3-0.4,3.9-2.1,7.6-5.2c3.2-2.5,5.5-2.8,6.8-0.8c1.6,2.3,0.1,4.7-4.4,7.4l-5.8,3.4
		c-5.3,3.7-10.7,6.1-16.2,7.2l-11.2,2.6C379.9,159.6,378.4,158.6,378.4,156.2z"/>
	<path class="st4" d="M518.4,107.6c-1.2,1.6-5.2,5.9-12,13c-2.5,2.8-4.7,5.5-6.6,8c-0.9,1.3-0.3,3.3,1.8,5.8l1.8,2.6l3.6,4.8
		c1.7,0,4.6-0.7,8.6-2.2c1.1-0.4,2-0.7,2.8-0.8l12.6-9.2c0.9-0.4,1.1,0.1,0.6,1.4c-3.2,6.7-5.8,10.7-7.8,12c-2.1,1.3-3.5,2.3-4.2,3
		c-6,5.2-12.7,9.3-20.2,12.2c-0.5,0.1-1,0.3-1.4,0.4c-2.5,0.9-5.4-0.3-8.6-3.6c-1.6-1.9-2.7-3.1-3.4-3.6l-5.4-4.6
		c-1.1-1.2-1.7-2.7-1.8-4.4c-0.3-4.9-0.5-13.5-0.6-25.8v-27c0-3.5,2.1-6.8,6.2-10l4-3.2c5.5-4.7,9.3-7.4,11.4-8.2
		c2.1-0.9,4.5-1.4,7.2-1.4c3.1,0,6.5,1.6,10.4,4.8c0.9,0.8,1.7,1.4,2.2,1.8l8.8,6.4c2.4,2.3,3.7,4.9,3.8,8c0.3,4.1-1.8,8.2-6.2,12.2
		C521.8,103.8,519.3,106.4,518.4,107.6z M497.4,119.8c6.1-4.3,9.4-6.6,9.8-7c0.7-0.7,1.4-1.4,2.2-2.2l6.4-6.4c1.5-1.9,2.1-3.9,2-6.2
		c-0.1-2.1-1.5-4.3-4.2-6.4l-3-2.6c-8.5-8-13.5-11.7-15-11.2l-0.6,1V80c0.3,2.9,0.2,8.9-0.2,18c-0.1,3.2-0.1,6.2,0.2,9v11.8
		C495.2,120.4,496,120.7,497.4,119.8z"/>
	<path class="st4" d="M604.2,156.2c-2.1-0.3-5-1.7-8.6-4.2c-0.8-0.7-1.5-1.2-2.2-1.6l-8.2-4.4c-1.2-0.9-2.5-2.1-3.8-3.6
		c-1.5-1.6-0.3-3.6,3.4-6c2.1-1.2,3.4-2,3.8-2.4c0.5-0.4,2.5-0.9,5.8-1.6c1.7-0.4,2.6-1.3,2.6-2.6c0-10.7-0.1-19.3-0.4-25.8
		c-0.3-7.2-0.7-14.3-1.4-21.4c-0.1-1.6-1.7-2.9-4.6-3.8c-0.4-0.1-0.7-0.3-0.8-0.4c-0.8-0.3-2.9-0.1-6.4,0.6c-1.9,0.4-3.1,0-3.8-1.2
		c-0.9-1.9,0.2-4,3.4-6.4c1.6-1.2,2.7-2.1,3.2-2.6c0.3-0.3,1.9-1.1,4.8-2.6c1.1-0.5,1.9-1.3,2.4-2.2c2-3.5,2.7-7.1,2.2-10.8
		c-0.1-1.3-0.5-2.8-1-4.4c-0.5-1.6-2.7-3.7-6.4-6.2c-3.1-2-3.9-3.7-2.6-5.2l16.8-16.6l13.2-13.4c2.4-2.1,5.2-4.3,8.4-6.6
		c2.4-1.6,5.8-0.7,10.2,2.6c-0.4-0.3,0,0.1,1.2,1c2.4,1.9,3.6,3.9,3.6,6c0,1.3-1,2.9-3,4.8l-0.6,0.6c-1.9,2-3.1,3.1-3.6,3.2
		l-1.2,0.4c-1.2,0.1-2.9-0.7-5.2-2.4c-0.5-0.4-1-0.7-1.4-1l-4.8-3c-2-0.1-3.5,0.7-4.6,2.6c-1.2,2.1-2.5,3.6-3.8,4.4l-6.4,8
		c-0.7,0.7-1.3,1.3-2,2l-1.4,1c0-0.5,0.5,1.4,1.4,5.8c0.4,1.6,2.1,2.8,5.2,3.6c2.5,0.8,4.2,1.8,5,3c0.5,0.8,0.7,2.5,0.6,5.2
		c0,0.5,0,1,0,1.4c0,0.7-0.3,3.5-0.8,8.4v4.2c0.4,1.2,1.1,2.3,2,3.2c1.3,1.3,3.7,1.7,7,1c1.6-0.3,2.9-0.4,3.8-0.4l8.4-0.2
		c1.1,0.1,2.3,0.4,3.6,0.8c2,0.5,1,1.7-3,3.4l-7.8,3.8c-0.3,0.3-2.5,1.2-6.8,2.8c-2.4,0.8-3.7,2.3-4,4.4l-0.6,20.2l-0.4,23
		c-0.1,2.1-0.4,4.3-0.8,6.4c-0.1,1.1-1.2,2.7-3.2,5c-1.1,1.3-1.6,2.7-1.6,4c0,2.4,1.2,4.4,3.6,6c0.4,0.3,1.7,0.3,4,0.2
		c1.1,0,1.7,0.3,2,1c0.8,2.1-0.5,4.4-4,6.8c-0.3,0.1-0.5,0.3-0.8,0.4c-2.4,1.6-5,2.3-7.8,2C605.4,156.4,604.8,156.3,604.2,156.2z"/>
	<path class="st4" d="M708.6,74.8c4.5-3.6,9.9-4.5,16.2-2.6l7.6,2.6c4.7,1.3,7.4,2.4,8.2,3.2l1.4,1.8l0.4,1.4
		c0.9,7.6,1.7,16.9,2.2,28l0.2,25c-1.3,6.4-3.7,10.5-7,12.2l-6.4,2.8l-16.2,5.8c-2.5,0.5-5.1,0.7-7.8,0.6c-3.5-0.4-7.5-2.2-12.2-5.4
		l-1.6-1.2c-3.7-2.4-6.1-4.3-7-5.8c-0.3-0.4-0.5-0.8-0.6-1.2c-1.5-2.9-2.1-7.3-2-13.2c0-1.3,0-2.5,0-3.6
		c-0.3-11.6,0.2-20.1,1.4-25.4c0.1-0.7,0.3-1.3,0.6-2c1.3-5.5,3.9-9.7,7.8-12.6L708.6,74.8z M714.4,89.2c-3.6,0.4-6.7,2.2-9.2,5.4
		c-0.3,0.4-1,1.4-2.2,3c-1.6,2.1-2.3,8-2.2,17.6c0,2.1,0,3.8,0,5l0.4,8c0.5,4.3,3.7,7.7,9.4,10.4c0.4,0.1,0.8,0.3,1.2,0.6
		c11.2,4.3,17.1,4.4,17.8,0.4v-30.8c-0.4-9.5-2.1-15.1-5-17c-0.4-0.3-1.2-1.1-2.4-2.6C721.6,88.6,719,88.6,714.4,89.2z"/>
	<path class="st4" d="M815,158.6c-1.5,0-3.2-1.1-5.2-3.4l-2-1.8l-11-8.2c-0.8-0.8-1.5-1.5-2.2-2.2c-0.7-0.8,0.1-1.6,2.4-2.4
		c2.8-0.9,4.2-1.9,4.2-3v-28.2l1-20.4c0-1.5-0.1-2.9-0.4-4.2c-0.1-0.7-1.4-1-3.8-1c-0.3,0-2.1,0.6-5.6,1.8c-0.7,0.3-1,0.1-1-0.6
		c1.9-3.9,3.6-6.3,5.2-7.4c1.2-0.7,2.1-1.2,2.6-1.6c3.1-2.3,6.3-3.7,9.8-4.4c4.4-0.8,7.4-0.8,9,0c0.4,0.1,0.8,0.3,1.2,0.6
		c3.1,2.1,4.3,4.6,3.8,7.4c0,0.4-0.1,0.7-0.2,1c-0.3,0.7-1.4,1.2-3.4,1.6l-1.8,0.6c-0.1,0.3-0.2,0.5-0.2,0.8
		c-0.1,2.8-0.1,8.2,0,16.2v32.4c0,0.8,0,1.6,0,2.4c-0.1,2.1,0.5,4.3,2,6.4c0.3,0.4,0.6,0.9,1,1.4c0.3,0.4,1.5,1.1,3.6,2.2
		c0.9,0.5,1.5,1.2,1.8,2c0.7,2,0.3,4.1-1.2,6.2c-0.3,0.4-0.7,0.9-1.2,1.6c-1.9,2.1-3.4,3.4-4.6,3.8
		C817.8,158.4,816.6,158.6,815,158.6z"/>
	<path class="st4" d="M890,156.2c-1.7-0.1-4.3-1.3-7.8-3.6l-6.2-3.4c-1.1-0.8-1.6-1.9-1.6-3.2c0-1.1,0.9-2.1,2.8-3.2
		c0.9-0.5,1.6-1.1,2-1.6l2-3.6c0.3-0.1,0.6-0.3,1-0.4c1.5-0.3,3.3,0.6,5.6,2.6c0.8,0.7,1.5,1.2,2.2,1.6l4,2.8
		c0.3,0.1,0.5,0.2,0.8,0.2c2.3,0.5,4.1,0.6,5.6,0.2c0.9-0.3,1.9-0.7,2.8-1.4c2.3-1.6,3.9-4.9,4.8-9.8c0.9-4.5,1.2-7.4,0.8-8.6
		c-0.3-0.8-0.7-1.5-1.4-2.2c-1.5-1.5-4.1-1.9-7.8-1.4c-2,0.3-3.6,0.3-4.8,0.2h-9.2l-1.8-0.8c-0.4-0.4-0.7-0.9-1-1.6
		c-0.4-1.2-1-4.7-1.8-10.4c-0.1-1.2-0.3-2.3-0.6-3.4l-3.4-11c-0.4-2.3,0.9-4.4,4-6.4c2.4-1.7,4-3,4.8-3.8l5.6-5.4
		c0.4-0.5,0.8-1.1,1.2-1.8l1-3.8c3.5-4.5,6.1-6.7,8-6.6c0.7,0,1.3,0.2,2,0.6c3.2,2.1,6.9,5.2,11,9.2c0.5,0.5,1.1,1.1,1.6,1.6
		c0.4,0.4,2.1,2.5,5,6.2c1.5,2,3.2,3.4,5.2,4.2c1.9,0.4,4.7,0.4,8.4,0c2.7,0,1.9,2.1-2.2,6.4l-3.2,2.8c-2.8,2.1-5.6,3-8.4,2.6
		c-0.4-0.1-0.7-0.2-1-0.2c-2.8-0.5-5.9-2.5-9.2-6c-1.1-1.3-2-2.3-2.8-3c-0.5-0.5-1.7-2.5-3.6-5.8c-1.1-1.9-2.5-2.9-4.2-3.2
		c-1.2-0.3-2.7,0.5-4.4,2.4c-0.7,0.8-1.1,2-1.4,3.6c-0.3,2.1,0.1,6.3,1,12.6l1.4,6v0.6c0,1.1,1.3,1.3,3.8,0.8
		c1.2-0.3,2.1-0.4,2.6-0.4l8.8,0.4c0.3,0.1,0.5,0.2,0.8,0.2l8.4,2.2c1.1,0.4,1.9,1.1,2.6,2.2c2.4,3.7,2.7,8.7,1,15
		c-1.2,4.3-1.9,6.9-2,7.8c-0.3,1.2-1.5,4.2-3.6,9c-0.7,1.5-1.1,2.9-1.4,4.4c-0.5,2.5-2.9,3.7-7.2,3.6c-4.1-0.3-6.9-0.2-8.2,0.2
		L893,156C892,156.2,891,156.3,890,156.2z"/>
</g>
</svg>
